HIERARCHY
ROOT Hips
{
	OFFSET -14.64140 90.27770 -84.91600
	CHANNELS 6 Xposition Yposition Zposition Zrotation Xrotation Yrotation
	JOINT Spine
	{
		OFFSET 0.00000 13.20850 -1.60436
		CHANNELS 3 Zrotation Xrotation Yrotation
		JOINT Spine1
		{
			OFFSET 0.00000 8.61716 0.00000
			CHANNELS 3 Zrotation Xrotation Yrotation
			JOINT Spine2
			{
				OFFSET 0.00000 8.61717 0.00000
				CHANNELS 3 Zrotation Xrotation Yrotation
				JOINT Spine3
				{
					OFFSET 0.00000 8.61717 0.00000
					CHANNELS 3 Zrotation Xrotation Yrotation
					JOINT Neck
					{
						OFFSET 0.00000 11.07920 1.10792
						CHANNELS 3 Zrotation Xrotation Yrotation
						JOINT Neck1
						{
							OFFSET 0.00000 7.08032 0.00000
							CHANNELS 3 Zrotation Xrotation Yrotation
							JOINT Head
							{
								OFFSET 0.00000 7.08031 0.00000
								CHANNELS 3 Zrotation Xrotation Yrotation
								End site
								{
									OFFSET 0.00000 0.00000 0.00000
								}
							}
						}
					}
					JOINT RightShoulder
					{
						OFFSET -0.01000 7.91373 5.19711
						CHANNELS 3 Zrotation Xrotation Yrotation
						JOINT RightArm
						{
							OFFSET -18.41580 0.00000 0.00000
							CHANNELS 3 Zrotation Xrotation Yrotation
							JOINT RightForeArm
							{
								OFFSET -29.11090 0.00000 0.00000
								CHANNELS 3 Zrotation Xrotation Yrotation
								JOINT RightHand
								{
									OFFSET -24.65040 0.00000 0.00000
									CHANNELS 3 Zrotation Xrotation Yrotation
									JOINT RightHandThumb1
									{
										OFFSET -5.35114 -0.85590 3.97906
										CHANNELS 3 Zrotation Xrotation Yrotation
										JOINT RightHandThumb2
										{
											OFFSET -4.52789 0.00000 0.00000
											CHANNELS 3 Zrotation Xrotation Yrotation
											JOINT RightHandThumb3
											{
												OFFSET -2.46976 0.00000 0.00000
												CHANNELS 3 Zrotation Xrotation Yrotation
												End site
												{
													OFFSET 0.00000 0.00000 0.00000
												}
											}
										}
									}
									JOINT RightHandIndex1
									{
										OFFSET -14.26970 0.00000 2.88139
										CHANNELS 3 Zrotation Xrotation Yrotation
										JOINT RightHandIndex2
										{
											OFFSET -5.48836 0.00000 0.00000
											CHANNELS 3 Zrotation Xrotation Yrotation
											JOINT RightHandIndex3
											{
												OFFSET -3.01859 0.00000 0.00000
												CHANNELS 3 Zrotation Xrotation Yrotation
												End site
												{
													OFFSET 0.00000 0.00000 0.00000
												}
											}
										}
									}
									JOINT RightHandMiddle1
									{
										OFFSET -14.26970 0.00000 -0.09147
										CHANNELS 3 Zrotation Xrotation Yrotation
										JOINT RightHandMiddle2
										{
											OFFSET -6.17441 0.00000 0.00000
											CHANNELS 3 Zrotation Xrotation Yrotation
											JOINT RightHandMiddle3
											{
												OFFSET -3.56743 0.00000 0.00000
												CHANNELS 3 Zrotation Xrotation Yrotation
												End site
												{
													OFFSET 0.00000 0.00000 0.00000
												}
											}
										}
									}
									JOINT RightHandRing1
									{
										OFFSET -12.69180 0.00000 -3.06433
										CHANNELS 3 Zrotation Xrotation Yrotation
										JOINT RightHandRing2
										{
											OFFSET -5.62556 0.00000 0.00000
											CHANNELS 3 Zrotation Xrotation Yrotation
											JOINT RightHandRing3
											{
												OFFSET -3.56744 0.00000 0.00000
												CHANNELS 3 Zrotation Xrotation Yrotation
												End site
												{
													OFFSET 0.00000 0.00000 0.00000
												}
											}
										}
									}
									JOINT RightHandPinky1
									{
										OFFSET -11.11390 0.00000 -6.03719
										CHANNELS 3 Zrotation Xrotation Yrotation
										JOINT RightHandPinky2
										{
											OFFSET -4.52789 0.00000 0.00000
											CHANNELS 3 Zrotation Xrotation Yrotation
											JOINT RightHandPinky3
											{
												OFFSET -2.46976 0.00000 0.00000
												CHANNELS 3 Zrotation Xrotation Yrotation
												End site
												{
													OFFSET 0.00000 0.00000 0.00000
												}
											}
										}
									}
								}
							}
						}
					}
					JOINT LeftShoulder
					{
						OFFSET 0.01000 7.91373 5.19711
						CHANNELS 3 Zrotation Xrotation Yrotation
						JOINT LeftArm
						{
							OFFSET 18.41580 0.00000 0.00000
							CHANNELS 3 Zrotation Xrotation Yrotation
							JOINT LeftForeArm
							{
								OFFSET 29.11090 0.00000 0.00000
								CHANNELS 3 Zrotation Xrotation Yrotation
								JOINT LeftHand
								{
									OFFSET 24.65040 0.00000 0.00000
									CHANNELS 3 Zrotation Xrotation Yrotation
									JOINT LeftHandThumb1
									{
										OFFSET 5.35114 -0.85590 3.97906
										CHANNELS 3 Zrotation Xrotation Yrotation
										JOINT LeftHandThumb2
										{
											OFFSET 4.52789 0.00000 0.00000
											CHANNELS 3 Zrotation Xrotation Yrotation
											JOINT LeftHandThumb3
											{
												OFFSET 2.46977 0.00000 0.00000
												CHANNELS 3 Zrotation Xrotation Yrotation
												End site
												{
													OFFSET 0.00000 0.00000 0.00000
												}
											}
										}
									}
									JOINT LeftHandIndex1
									{
										OFFSET 14.26970 0.00000 2.88139
										CHANNELS 3 Zrotation Xrotation Yrotation
										JOINT LeftHandIndex2
										{
											OFFSET 5.48836 0.00000 0.00000
											CHANNELS 3 Zrotation Xrotation Yrotation
											JOINT LeftHandIndex3
											{
												OFFSET 3.01859 0.00000 0.00000
												CHANNELS 3 Zrotation Xrotation Yrotation
												End site
												{
													OFFSET 0.00000 0.00000 0.00000
												}
											}
										}
									}
									JOINT LeftHandMiddle1
									{
										OFFSET 14.26970 0.00000 -0.09147
										CHANNELS 3 Zrotation Xrotation Yrotation
										JOINT LeftHandMiddle2
										{
											OFFSET 6.17440 0.00000 0.00000
											CHANNELS 3 Zrotation Xrotation Yrotation
											JOINT LeftHandMiddle3
											{
												OFFSET 3.56744 0.00000 0.00000
												CHANNELS 3 Zrotation Xrotation Yrotation
												End site
												{
													OFFSET 0.00000 0.00000 0.00000
												}
											}
										}
									}
									JOINT LeftHandRing1
									{
										OFFSET 12.69180 0.00000 -3.06433
										CHANNELS 3 Zrotation Xrotation Yrotation
										JOINT LeftHandRing2
										{
											OFFSET 5.62556 0.00000 0.00000
											CHANNELS 3 Zrotation Xrotation Yrotation
											JOINT LeftHandRing3
											{
												OFFSET 3.56744 0.00000 0.00000
												CHANNELS 3 Zrotation Xrotation Yrotation
												End site
												{
													OFFSET 0.00000 0.00000 0.00000
												}
											}
										}
									}
									JOINT LeftHandPinky1
									{
										OFFSET 11.11390 0.00000 -6.03719
										CHANNELS 3 Zrotation Xrotation Yrotation
										JOINT LeftHandPinky2
										{
											OFFSET 4.52789 0.00000 0.00000
											CHANNELS 3 Zrotation Xrotation Yrotation
											JOINT LeftHandPinky3
											{
												OFFSET 2.46976 0.00000 0.00000
												CHANNELS 3 Zrotation Xrotation Yrotation
												End site
												{
													OFFSET 0.00000 0.00000 0.00000
												}
											}
										}
									}
								}
							}
						}
					}
					JOINT pCube4
					{
						OFFSET 0.00000 10.91090 1.10792
						CHANNELS 3 Zrotation Xrotation Yrotation
						End site
						{
							OFFSET 0.00000 0.00000 0.00000
						}
					}
				}
			}
		}
	}
	JOINT RightUpLeg
	{
		OFFSET -9.98441 0.00000 0.00000
		CHANNELS 3 Zrotation Xrotation Yrotation
		JOINT RightLeg
		{
			OFFSET 0.00000 -42.11790 0.00000
			CHANNELS 3 Zrotation Xrotation Yrotation
			JOINT RightFoot
			{
				OFFSET 0.00000 -45.00020 -0.00001
				CHANNELS 3 Zrotation Xrotation Yrotation
				JOINT RightForeFoot
				{
					OFFSET 0.00000 -3.74820 0.00000
					CHANNELS 3 Zrotation Xrotation Yrotation
					JOINT RightToeBase
					{
						OFFSET 0.00000 0.06325 14.43120
						CHANNELS 3 Zrotation Xrotation Yrotation
						End site
						{
							OFFSET 0.00000 0.00000 0.00000
						}
					}
				}
			}
		}
	}
	JOINT LeftUpLeg
	{
		OFFSET 9.98441 0.00000 0.00000
		CHANNELS 3 Zrotation Xrotation Yrotation
		JOINT LeftLeg
		{
			OFFSET 0.00000 -42.11800 0.00000
			CHANNELS 3 Zrotation Xrotation Yrotation
			JOINT LeftFoot
			{
				OFFSET 0.00000 -45.00070 0.00000
				CHANNELS 3 Zrotation Xrotation Yrotation
				JOINT LeftForeFoot
				{
					OFFSET 0.00000 -3.74824 0.00000
					CHANNELS 3 Zrotation Xrotation Yrotation
					JOINT LeftToeBase
					{
						OFFSET 0.00000 0.06325 14.43110
						CHANNELS 3 Zrotation Xrotation Yrotation
						End site
						{
							OFFSET 0.00000 0.00000 0.00000
						}
					}
				}
			}
		}
	}
}
MOTION
Frames: 4
Frame Time: 0.050000
0.00020737708835298944 -0.009240570306425604 0.028271486360928216 0.04239254060913015 -0.0017893124907152045 0.0016169482817589042 1.2053410261180426 3.6122160089259867 -1.4678970909454743 -0.5956148876280326 3.7897662446022133 0.36243853078860616 -0.8328135589687523 -1.2006206148424332 1.500710591398285 -0.4923054093141937 -0.8298389927142108 -0.28879921890005333 0.3741347773183996 11.825637937563155 -2.2103864943870524 0.17771799057228793 -1.6243439713869992 -6.949917362082191 1.1057047280232666 -17.951620769401888 -0.6181817957487322 -6.783382820768782 2.6071502270711138 -16.13103671499638 75.62447600379438 -23.17925248117143 19.237898031744045 25.370648668691935 -1.915000760102438 86.8097066174153 11.073892168875375 -0.25798479105660493 -1.4593351899489193 4.49477903779236 -0.09440569636247087 -1.5719857548371232 0.03214424013376086 -0.028815382868456824 -56.2003351932182 -0.02212998959963358 -0.02981390266215446 -56.25855221243781 -38.77919259415859 0.02390724768253897 0.0272255816418185 -0.023255066455194703 0.049976606973823424 -0.02841976049559113 0.036317640992642154 0.030105461212578687 -0.040663435476053875 -36.722736471838985 0.042569110779652905 -0.028278963531195783 0.039423435788930046 0.035166203685884696 0.0381593510803944 -0.03886076625961802 0.005345600618511451 0.014866327559773945 -19.76799082239954 0.04549047857609876 0.046305891468860605 0.0010737946470460863 0.012364139365746568 0.013697268936961753 -0.0021366237135852987 -0.0020053768883189845 -0.02380257470204365 24.01051196268462 0.005326064370535997 0.03134484575219142 28.898114264184667 -0.02430866416678468 -0.02362213107347814 28.87394864327388 -0.011894572311710197 0.041016564728029385 5.381265781701655 1.616236201655608 14.517423014339519 -72.82777435728998 -1.5658495837075828 -10.025708800804036 11.446511112324885 -10.134049726463887 -73.19336250061174 -9.367239370580606 11.544810967124993 -10.969981956179247 -0.4942092266224153 0.08225762007502718 -8.106584170719392 -0.04069663935674146 0.027041770186873995 44.56237567976089 -0.006891266473440675 0.030973627706410812 44.537045731016846 12.507298687311895 -0.0010853453984635366 0.03204719805569576 0.012412775665849411 0.007413890099946223 0.008928861670176749 0.044368052593382085 -0.03956260494254253 0.0248493296284784 11.144211038036559 -0.02867034696107541 0.00815180578259275 -0.030438161339621076 -0.03696510266440735 -0.026954349451511914 0.016032377352112926 -0.04826360435495014 -0.03164052001719135 4.771790809144045 -0.015925946915220063 0.010003240819935911 0.005047416129320916 0.000496024590255098 0.04555829959072961 0.03194088848042111 0.048058514011751687 -0.016585456054018986 -5.589911842865366 0.019237713096217527 -0.00346771487753056 -6.7045097350407445 -0.03236838673443878 0.04064571191406732 -6.757144434066501 0.004793547101669841 -0.010916039965177681 -0.02568970573863772 -0.022884187266770918 0.047079876795074686 8.064463090138306 3.4501748203948943 -19.250265054213905 -0.01551972624960876 10.349643509612058 -0.03257670659715935 -5.617214787279818 -15.625733163980447 3.234790885536085 0.010392084105790178 -0.043009250717551024 0.00012877923141400356 0.0001036712016973428 4.720433356728579 -0.005983082287197652 12.492649251644643 -8.280107251607774 6.918611357563129 0.02290250688486163 46.338104786221 0.004513342383576447 -4.347885369992268 -14.742627710091407 -3.840973987876124 -0.004578193327376426 -0.0007220181119148372 0.033958238447592 -0.016937846823511477 -10.71856554355941 0.02678452549200986 
-0.0051519802964670874 -0.0047223982480825676 0.034946283795629335 0.03154525099379365 0.01741307286155849 0.0007806604134854218 1.6772953681039375 3.599150995807075 -1.4924525011136387 -0.6593038563397252 3.7663607225722373 0.38183834092555957 -0.7931567265201612 -1.1209120330347537 1.7012102741549082 -0.46902435920783436 -0.8462896697259051 -0.31542186946535533 0.4754548603154249 11.956987188401468 -2.3084597102149993 0.2096313262423746 -1.5369323515445457 -7.240763272142123 1.068198873311786 -17.86601276195832 -0.6680216475813435 -7.731803866354139 2.8300224128806355 -16.30535060911895 75.28395953470151 -23.036346130339723 21.789139357856694 23.08493068753765 -3.440240288961125 89.30959664751022 9.265233710762683 -0.3073793690490385 -0.9892015039025926 4.572803358363849 -0.16730907540409892 -1.6174565552450761 -0.031789851937088096 -0.0031715662772224935 -56.22661054369385 -0.004172939175780344 0.013421070663498545 -56.20427574237193 -38.72403256077222 0.04368143551800859 -0.04552316776815656 -0.011994071741933121 0.02056286181927601 -0.01133885710955814 -0.03874112045365412 0.022171612733257278 -0.004738343964230629 -36.64673388755632 0.01834937848930575 -0.03932517324071093 -0.02910749225955299 0.04623384795486617 0.03530959335100006 -0.015836630869370528 -0.017814985019809132 0.01240578663840622 -19.749786875218422 -0.006511493623222441 0.009403144999758988 -0.032216833974753924 0.03180604163454901 0.015205694710101188 -0.020848136477108977 0.014937590388098398 0.0015664586967134185 24.094067713427958 0.012157356961431727 -0.04978513949363634 28.914797941756078 0.04516941278112831 -0.010065052135862814 28.896431685899394 0.033337483489261154 0.023231022362701907 5.733059662243714 1.6733036770261076 14.679693259032817 -71.90655989362325 0.7092749953105129 -9.505510468692512 14.560427292286732 -13.902798240794143 -78.18582445819287 -7.50184182968543 9.242660597309877 -10.531266364216089 -0.48333202633038674 0.10381282480803256 -8.172481319018193 0.039882531947296705 0.03403357250487415 44.51827841667676 -0.03928680691626256 0.005310157407836382 44.57116725551422 12.458041516221293 0.019339170848705445 0.047982014545850535 0.026493333985327532 0.03051843724144756 0.012945324896705995 -0.0075108635084749535 0.02579827075670261 0.012635880831387319 11.081541716113554 -0.0263680929790347 0.00996080710446526 0.01875637847857796 -0.044099911727292634 -0.005814333405571375 -0.0007286707503817509 -0.04778925230365262 0.02518049070847066 4.728857163595936 -0.009677435361755261 0.014089810381340055 0.02761516457162096 0.016992681255333663 0.039818244168393385 -0.03747662603415746 -0.025427757015011914 -0.017091073045609563 -5.6256961384194994 -0.0035611911842451448 0.0018312118669106731 -6.720884061982497 -0.03953954493516165 -0.005409153217744083 -6.734157934944786 -0.024218687314628184 -0.01855081688673204 0.018019531386261646 0.017314008826715438 0.012015948988241824 7.996628678771398 3.5078518194241326 -19.212173640345906 -0.01639552981021462 10.42813686936866 -0.00852226276694332 -5.648612180146051 -15.684782139207597 3.207572308907442 -0.024521295431812768 -0.01453192992179841 0.04440375406848098 -0.029303295572398726 4.6530597810602226 -0.035579996548397406 12.443748628325492 -8.220023348913049 6.89306425442985 0.023581095303762824 46.371697661239665 -0.0019269464516941494 -4.333940774143807 -14.750450531828783 -3.847294454413702 -0.04384740321447514 -0.001879510298258468 0.038376192519441014 0.02603671210491201 -10.77398312924419 -0.024713414926896424 
-0.025117817610980184 0.023766988617584823 -0.026542791860328332 -0.0038324319602800667 0.043915427990033 0.010623551902159425 1.8982358403785886 3.6111052050474584 -1.4743453545721241 -0.7390021295151317 3.7459620816070376 0.3661740382739476 -0.8007572110819442 -1.167779819181816 1.9917539203993384 -0.5131207875682422 -0.8386225716246807 -0.20277317600358935 0.5905566044776313 12.249305650394062 -2.2015725526883703 0.10094377593070707 -1.4116000093395502 -7.324614840346378 1.1075583231663881 -17.779498613487952 -0.6560896258047474 -8.725468612621093 3.0515959708401854 -16.504714276598072 74.99586762712676 -24.953993287178893 25.576930754409204 21.555285701474357 -4.66234700587259 91.2350916146712 7.8019928519462605 -0.20083391536565226 -0.35626282921046293 4.567649459112327 -0.12074683073558443 -1.6222155412055013 0.03577465010317879 0.02837209075691213 -56.214795801932915 -0.010711073176228403 -0.03552541948197909 -56.24205729839545 -38.72671299209855 0.006179805735573695 -0.006522745653537339 -0.00669090957915771 0.01302938606753461 0.036400430285462 -0.011271945560858067 -0.015649332909904196 -0.009606278650204376 -36.704700655262606 -0.0030804237142540844 -0.010139584717615596 -0.026471679779692267 -0.002104987006572617 -0.022611308388312983 -0.0006356220704803478 -0.03182353276887313 0.014383165919663864 -19.714281020324638 -0.04394417635533865 0.04213639193120147 0.02621895671194293 0.000882136457780787 -0.03319338664554029 -0.04272294332270796 0.047324424612178805 -0.01520649955847392 24.016284282684357 -0.002099872204229083 0.048343719747433726 28.902188212414824 -0.012062412134935916 0.017524530323913604 28.882663393035724 -0.005996965056735642 -0.04965875213429074 6.215596477724843 1.7057442309952071 14.831072703412424 -71.43277889684013 0.17794455827104677 -9.449652802396983 15.427581100333828 -15.050277762493465 -80.9530144599561 -6.307807469644238 8.164144293956381 -10.59817344585493 -0.44327612097704605 0.08731773361839103 -8.114275460789019 0.02012431493865477 0.02121320192149213 44.5946371851118 -0.002802510775343195 0.006111522808285301 44.60343861994813 12.49190934902043 -0.0016663423748652856 0.031199048093732418 -0.013747695815866864 -0.02560114405384711 0.0452042067514511 0.018176121559947866 0.04113928465203485 0.0380869950816209 11.10909620779285 -0.0460456601180448 0.04293667368131022 -0.00458668214259177 0.009035840161382763 -0.012072869431962714 0.039185097328973906 0.04888820548949029 -0.0022701004588143933 4.815803760211612 -0.020443282285362022 -0.019349922988247285 -0.006511188710874814 -0.04130483512688621 -0.01006901672771826 0.04828727390646492 -0.0061553992549081005 0.001159745053362556 -5.567783398691528 -0.033693343155987966 -8.190960602907449e-05 -6.748777622175589 0.033878766657559754 -0.003340273116437195 -6.730955071402381 -0.04974003286017981 -0.00036070720684012916 0.004244507350357116 -0.04037486343189848 -0.025800593601307282 8.024376211135056 3.4963758883944283 -19.205746621764963 -0.022460466841745245 10.403741722451162 0.04819320094585278 -5.628531388729183 -15.672065080653109 3.1966029396821694 0.021580980875220448 0.04007189402333696 -0.020452740554057623 0.012747114705070152 4.741226810547007 -0.028180217698262334 12.488424055504007 -8.207816388474575 6.895192621071407 0.043956220989265264 46.41513253681734 -0.014460749596972074 -4.30155503903658 -14.709877821299266 -3.8148012976049386 0.012391852693979171 -0.003970044826529578 -0.04492878466064771 -0.013633907777356005 -10.743716002674391 -0.023136311601212153 
-0.011514228160583805 0.026591451741890516 -0.02677233872101713 -0.023433476420362025 0.03451151069009181 -0.014778285268910877 2.0719852864216586 3.7231370525549656 -1.566592192408961 -0.769178132505158 3.7826281892882063 0.3861796468342514 -0.8542723619106926 -1.218452467135241 2.262720491457325 -0.5571147273515654 -0.8501126379137236 -0.2106523008240413 0.5424578848763886 12.491932482901726 -2.1433238046896963 0.12735632828271193 -1.3216857610045554 -7.31179652461712 1.0518294247834041 -17.762633746268115 -0.6353640750025442 -9.672287692279607 3.358857099918106 -16.69238603695461 74.62000746863536 -27.75011170050661 28.97757358337525 20.57994245568727 -5.615399904787431 92.3739241086746 6.713299254264739 -0.21388079476328412 0.10364615873349425 4.504265685072157 -0.11279753303831011 -1.5844146214284158 -0.024549395668883 0.005796631954777665 -56.27757053511289 0.04992354750543712 0.011932767061273815 -56.23895231418535 -38.74847540957586 0.029663832417198846 0.008089696868316166 -0.03237017307924681 0.01766637688724133 -0.013380044570394711 0.045087989804007425 -0.004554138209707346 0.005245877337370649 -36.72171312614016 0.04235378479067678 0.006877735171754109 0.03493942149353257 -0.02944417022561156 0.0007055324356187501 -0.028071927725026445 0.03001637941393418 0.03456322471053276 -19.752691141461717 0.0017049887744651257 -0.011547220556721586 0.01502189313247337 0.04047713503057684 0.019215033392820307 0.045468168970585185 -0.01522004001569365 0.024718120228068404 24.028704369939636 -0.03748074263362943 0.04394227959929497 28.86644527212288 0.005973881664297329 -0.012641979693845415 28.829540191151043 0.005623289917514899 0.014707940096921618 6.703216610004906 1.762494746903335 15.113026241473982 -71.22745869405611 -2.0230185566387537 -9.797718896073734 14.590739247500828 -14.266569490474652 -82.82890079215352 -5.485874138391918 7.915413252948272 -11.065806687287893 -0.47446255954496536 0.0818831889065646 -8.103897066285722 0.03387388310332175 -0.04838850865585273 44.55924774901991 -0.027399225862073596 -0.02567208197375146 44.605378832740406 12.453575880987037 0.025920070159526798 -0.04715473892581317 -0.03500842178919294 0.04846797255815175 -0.0021679521053024464 -0.006783131310218048 -0.01527466638146567 -0.004658272752287445 11.089921761213708 -0.0012050127716746427 0.029772166273009226 0.010495623414874053 0.0036812043845707797 -0.016584574840000626 -0.017102924204441285 -0.04105919724185594 -0.04829134619378732 4.799264520261964 -0.005258071577418378 0.03257918656642565 -0.04210631015296606 0.03800863378025129 -0.028149295973747393 0.019036826027094975 -0.010975926119984014 -0.011798632371274124 -5.619486375363088 0.020917334633001716 -0.01921841853784394 -6.7589793405363165 -0.03159831415871505 -0.030091013985562243 -6.743845386139443 -0.03304508581691952 0.02595231411933082 0.000452559548401102 0.03377135441543128 0.00935123043681418 8.001973681919214 3.4673525450714386 -19.263032115795898 -0.02023901891774225 10.40537331288084 0.015067235982401847 -5.592900654239352 -15.63406585938301 3.2290343823645062 -0.0057325629495013335 -0.006371413077464178 -0.013751015092074272 0.03918716937302412 4.689775456758332 0.018808991371321204 12.41616844167491 -8.192975708315995 6.909714273101051 0.035988005231909544 46.38358966332358 0.03992573345267122 -4.34802906726715 -14.756401588889545 -3.8163055416727083 -0.008720464075410876 0.028837618512539825 -0.017177473548835025 -0.006676041202325317 -10.774630458871933 -0.009280912525395302 
